<?xml version="1.0" standalone="no"?><!DOCTYPE svg PUBLIC "-//W3C//DTD SVG 1.1//EN" "http://www.w3.org/Graphics/SVG/1.1/DTD/svg11.dtd"><svg t="1755765230861" class="icon" viewBox="0 0 1024 1024" version="1.1" xmlns="http://www.w3.org/2000/svg" p-id="1438" xmlns:xlink="http://www.w3.org/1999/xlink" width="200" height="200"><path d="M461.312 82.5344c13.5168-50.688 85.4016-50.688 98.9184 0l70.4512 263.3728a51.2 51.2 0 0 0 33.792 35.6352l255.6928 81.7152a51.2 51.2 0 0 1 0 97.4848l-255.5904 81.7152a51.2 51.2 0 0 0-33.8944 35.6352l-70.4512 263.3728c-13.5168 50.688-85.4016 50.688-98.9184 0l-70.4512-263.3728a51.2 51.2 0 0 0-33.8944-35.6352L101.2736 560.7424a51.2 51.2 0 0 1 0-97.4848l255.6928-81.7152a51.2 51.2 0 0 0 33.792-35.6352L461.4144 82.5344z" fill="#0D1B3F" p-id="1439"></path></svg>